<svg xmlns="http://www.w3.org/2000/svg" viewBox="0 0 64 64">
<title>Propane Tanks 480 gal (4×120) manifolded</title>
<g stroke="currentColor" stroke-width="2.5" fill="none" stroke-linecap="round" stroke-linejoin="round">
  <rect x="2.0" y="26" width="12" height="28" rx="6"/><rect x="6.0" y="16" width="4" height="7" rx="2.5"/><path d="M8.0 19.5h0"/><path d="M10.0 19.5v3.5M6.0 19.5v3.5"/><circle cx="8.0" cy="19.5" r="1.3"/><path d="M7.0 54h2"/>
  <rect x="18.0" y="26" width="12" height="28" rx="6"/><rect x="22.0" y="16" width="4" height="7" rx="2.5"/><path d="M24.0 19.5h0"/><path d="M26.0 19.5v3.5M22.0 19.5v3.5"/><circle cx="24.0" cy="19.5" r="1.3"/><path d="M23.0 54h2"/>
  <rect x="34.0" y="26" width="12" height="28" rx="6"/><rect x="38.0" y="16" width="4" height="7" rx="2.5"/><path d="M40.0 19.5h0"/><path d="M42.0 19.5v3.5M38.0 19.5v3.5"/><circle cx="40.0" cy="19.5" r="1.3"/><path d="M39.0 54h2"/>
  <rect x="50.0" y="26" width="12" height="28" rx="6"/><rect x="54.0" y="16" width="4" height="7" rx="2.5"/><path d="M56.0 19.5h0"/><path d="M58.0 19.5v3.5M54.0 19.5v3.5"/><circle cx="56.0" cy="19.5" r="1.3"/><path d="M55.0 54h2"/>
  <path d="M8.0 40.0H56.0"/><path d="M32.0 40.0V34.0"/><circle cx="32.0" cy="32.5" r="1.2"/><path d="M8.0 40.0V44.0"/><path d="M24.0 40.0V44.0"/><path d="M40.0 40.0V44.0"/><path d="M56.0 40.0V44.0"/><path d="M4.0 57h8"/><path d="M20.0 57h8"/><path d="M36.0 57h8"/><path d="M52.0 57h8"/>
</g></svg>